<svg width="33" height="32" viewBox="0 0 33 32" fill="none" xmlns="http://www.w3.org/2000/svg">
<path d="M22.6541 13.5385C22.6541 11.1667 21.8112 9.13782 20.1253 7.45192C18.4394 5.76603 16.4105 4.92308 14.0387 4.92308C11.6669 4.92308 9.63807 5.76603 7.95217 7.45192C6.26627 9.13782 5.42332 11.1667 5.42332 13.5385C5.42332 15.9103 6.26627 17.9391 7.95217 19.625C9.63807 21.3109 11.6669 22.1538 14.0387 22.1538C16.4105 22.1538 18.4394 21.3109 20.1253 19.625C21.8112 17.9391 22.6541 15.9103 22.6541 13.5385ZM32.5003 29.5385C32.5003 30.2051 32.2567 30.7821 31.7695 31.2692C31.2823 31.7564 30.7054 32 30.0387 32C29.3464 32 28.7695 31.7564 28.308 31.2692L21.7118 24.6923C19.4169 26.2821 16.8592 27.0769 14.0387 27.0769C12.2054 27.0769 10.4522 26.7212 8.77909 26.0096C7.10602 25.2981 5.66371 24.3365 4.45217 23.125C3.24063 21.9135 2.27909 20.4712 1.56755 18.7981C0.856014 17.125 0.500244 15.3718 0.500244 13.5385C0.500244 11.7051 0.856014 9.95192 1.56755 8.27885C2.27909 6.60577 3.24063 5.16346 4.45217 3.95192C5.66371 2.74038 7.10602 1.77885 8.77909 1.06731C10.4522 0.355769 12.2054 0 14.0387 0C15.872 0 17.6253 0.355769 19.2983 1.06731C20.9714 1.77885 22.4137 2.74038 23.6253 3.95192C24.8368 5.16346 25.7983 6.60577 26.5099 8.27885C27.2214 9.95192 27.5772 11.7051 27.5772 13.5385C27.5772 16.359 26.7823 18.9167 25.1926 21.2115L31.7887 27.8077C32.2631 28.2821 32.5003 28.859 32.5003 29.5385Z" fill="#0F0A3C"/>
</svg>
