<svg width="74" height="65" viewBox="0 0 74 65" fill="none" xmlns="http://www.w3.org/2000/svg">
<path d="M68.6652 27.9849H14.4172L31.0209 8.04206C31.7973 7.10796 32.1708 5.90371 32.0593 4.69421C31.9478 3.48472 31.3604 2.36906 30.4263 1.59267C29.4922 0.816278 28.2879 0.442753 27.0784 0.554267C25.8689 0.665781 24.7533 1.2532 23.9769 2.18729L1.10672 29.6315C0.952848 29.8498 0.815255 30.0791 0.695052 30.3176C0.695052 30.5463 0.695053 30.6835 0.374871 30.9122C0.167546 31.4367 0.0589922 31.995 0.0546875 32.5589C0.0589922 33.1228 0.167546 33.6811 0.374871 34.2055C0.374871 34.4342 0.374869 34.5715 0.695052 34.8002C0.815255 35.0387 0.952848 35.268 1.10672 35.4863L23.9769 62.9305C24.4069 63.4468 24.9455 63.862 25.5542 64.1466C26.163 64.4312 26.8269 64.5782 27.4989 64.5771C28.5676 64.5792 29.6033 64.207 30.4263 63.5251C30.8894 63.1411 31.2723 62.6695 31.5529 62.1374C31.8335 61.6052 32.0064 61.0229 32.0617 60.4238C32.1169 59.8247 32.0534 59.2206 31.8748 58.6461C31.6962 58.0716 31.406 57.5379 31.0209 57.0757L14.4172 37.1329H68.6652C69.8783 37.1329 71.0417 36.651 71.8995 35.7932C72.7573 34.9354 73.2392 33.772 73.2392 32.5589C73.2392 31.3458 72.7573 30.1824 71.8995 29.3246C71.0417 28.4668 69.8783 27.9849 68.6652 27.9849Z" fill="#0F0A3C"/>
</svg>
