<svg width="14" height="15" viewBox="0 0 14 15" fill="none" xmlns="http://www.w3.org/2000/svg">
<path d="M9.69231 6.86799C9.69231 5.83033 9.32352 4.94271 8.58594 4.20513C7.84836 3.46755 6.96074 3.09876 5.92308 3.09876C4.88542 3.09876 3.9978 3.46755 3.26022 4.20513C2.52264 4.94271 2.15385 5.83033 2.15385 6.86799C2.15385 7.90565 2.52264 8.79327 3.26022 9.53085C3.9978 10.2684 4.88542 10.6372 5.92308 10.6372C6.96074 10.6372 7.84836 10.2684 8.58594 9.53085C9.32352 8.79327 9.69231 7.90565 9.69231 6.86799ZM14 13.868C14 14.1597 13.8934 14.4121 13.6803 14.6252C13.4672 14.8383 13.2147 14.9449 12.9231 14.9449C12.6202 14.9449 12.3678 14.8383 12.1659 14.6252L9.28005 11.7478C8.27604 12.4433 7.15705 12.7911 5.92308 12.7911C5.121 12.7911 4.35397 12.6354 3.622 12.3241C2.89003 12.0128 2.25902 11.5922 1.72897 11.0621C1.19892 10.5321 0.778246 9.90105 0.466947 9.16908C0.155649 8.4371 0 7.67008 0 6.86799C0 6.06591 0.155649 5.29888 0.466947 4.56691C0.778246 3.83494 1.19892 3.20393 1.72897 2.67388C2.25902 2.14383 2.89003 1.72316 3.622 1.41186C4.35397 1.10056 5.121 0.944916 5.92308 0.944916C6.72516 0.944916 7.49219 1.10056 8.22416 1.41186C8.95613 1.72316 9.58714 2.14383 10.1172 2.67388C10.6472 3.20393 11.0679 3.83494 11.3792 4.56691C11.6905 5.29888 11.8462 6.06591 11.8462 6.86799C11.8462 8.10197 11.4984 9.22096 10.8029 10.225L13.6887 13.1108C13.8962 13.3183 14 13.5707 14 13.868Z" fill="#2C2B3C"/>
</svg>
