<svg width="120" height="109" viewBox="0 0 120 109" fill="none" xmlns="http://www.w3.org/2000/svg">
<path fill-rule="evenodd" clip-rule="evenodd" d="M16.1923 0H103.868C112.209 0 119.03 6.82381 119.03 15.1618V93.8382C119.03 102.176 112.205 109 103.868 109H16.1923C7.85481 109 1.03003 102.176 1.03003 93.8382V15.1618C1.03003 6.82381 7.85481 0 16.1923 0Z" fill="#0C5391"/>
<path fill-rule="evenodd" clip-rule="evenodd" d="M117.957 99.2663C117.773 99.6522 117.572 100.026 117.355 100.397C110.88 97.8799 104.42 95.7728 97.9769 94.1422C73.1096 87.8603 40.194 88.6558 15.9246 96.7417C10.9616 98.3959 6.78094 100.452 3.5632 103C3.02959 102.421 2.54412 101.803 2.10278 101.149C3.71566 97.746 5.64149 94.5833 7.87224 91.6137C18.705 77.1868 35.1949 66.7851 53.6909 66.0486C63.9098 65.6429 74.9632 67.7816 86.9435 72.2597C79.9303 69.9438 73.0133 68.5732 66.2087 68.2306C47.2153 67.2735 26.625 75.6429 12.9717 88.5653C9.13606 92.1966 5.87018 96.2375 3.20211 100.716C6.60842 96.529 10.6647 92.9764 15.2385 89.9319C33.6863 77.6476 55.709 73.4767 77.5511 75.8319C90.4862 77.2262 103.157 80.8103 115.518 86.9701C104.541 82.6377 93.7601 79.9359 83.1681 78.7898C63.2879 76.6433 39.7447 80.0304 21.6539 88.5692C14.8453 91.783 8.96755 95.8791 4.32551 101.129C7.47103 98.7858 10.8693 96.8677 14.4642 95.2844C34.4928 86.4581 61.6108 84.8236 83.3647 88.0966C95.4051 89.8965 106.996 93.4254 117.957 99.2663Z" fill="#FEFEFE"/>
<path fill-rule="evenodd" clip-rule="evenodd" d="M26.6656 53.8746H22.4846V21H26.9891V32.7276C28.8939 30.5902 31.3258 29.5216 34.2728 29.5216C35.9141 29.5216 37.4635 29.8195 38.925 30.4115C40.3865 30.9994 41.5845 31.8337 42.5349 32.8984C43.4774 33.9711 44.2201 35.2543 44.7512 36.7719C45.2903 38.2815 45.5539 39.8944 45.5539 41.6107C45.5539 45.6986 44.4238 48.853 42.1676 51.0778C39.9193 53.3065 37.2079 54.4149 34.0532 54.4149C30.9145 54.4149 28.4546 53.2429 26.6656 50.895V53.8746ZM26.6137 41.7894C26.6137 44.6459 27.049 46.7037 27.9115 47.975C29.3291 50.0568 31.2539 51.0976 33.6738 51.0976C35.6505 51.0976 37.3516 50.3309 38.7852 48.7934C40.2228 47.2639 40.9416 44.9796 40.9416 41.9444C40.9416 38.8377 40.2508 36.5414 38.8731 35.0636C37.4954 33.5857 35.8302 32.8428 33.8815 32.8428C31.9048 32.8428 30.2037 33.6095 28.7701 35.139C27.3325 36.6686 26.6137 38.8893 26.6137 41.7894ZM47.4227 53.8746V30.0619H51.4759V33.4467C53.4326 30.8286 56.2559 29.5216 59.9417 29.5216C61.551 29.5216 63.0205 29.7838 64.3623 30.2963C65.712 30.8167 66.7143 31.4921 67.3812 32.3343C68.0561 33.1686 68.5193 34.1657 68.7908 35.3138C68.9546 36.0647 69.0384 37.3717 69.0384 39.2389V53.8825H64.526V39.3859C64.526 37.7491 64.3543 36.5136 64.0029 35.6952C63.6515 34.8848 63.0285 34.2333 62.138 33.7526C61.2395 33.2639 60.1973 33.0176 58.9913 33.0176C57.0665 33.0176 55.4173 33.5698 54.0157 34.6544C52.622 35.7509 51.9312 37.8167 51.9312 40.8717V53.8785H47.4227V53.8746ZM72.3369 63V30.0619H76.442V33.1527C77.4083 31.945 78.5025 31.0312 79.7245 30.4274C80.9384 29.8235 82.4159 29.5176 84.153 29.5176C86.4292 29.5176 88.4298 30.046 90.1629 31.0868C91.908 32.1356 93.2138 33.6135 94.0963 35.5204C94.9868 37.4274 95.4301 39.517 95.4301 41.7894C95.4301 44.2247 94.9429 46.4217 93.9605 48.3723C92.9862 50.3229 91.5686 51.8167 89.7037 52.8575C87.8388 53.8905 85.8821 54.4109 83.8296 54.4109C82.3241 54.4109 80.9823 54.1288 79.7844 53.5607C78.5864 52.9926 77.612 52.2736 76.8413 51.4115V63H72.3369ZM76.418 42.1033C76.418 45.1663 77.1089 47.4308 78.4945 48.9007C79.8802 50.3627 81.5654 51.0976 83.5301 51.0976C85.5307 51.0976 87.2478 50.3388 88.6774 48.8173C90.107 47.3036 90.8218 44.9518 90.8218 41.7656C90.8218 38.7264 90.119 36.462 88.7253 34.9444C87.3317 33.4347 85.6625 32.6799 83.7337 32.6799C81.809 32.6799 80.1078 33.4824 78.6303 35.0914C77.1528 36.7003 76.418 39.0403 76.418 42.1033Z" fill="#FEFEFE"/>
</svg>
