<svg width="273" height="109" viewBox="0 0 273 109" fill="none" xmlns="http://www.w3.org/2000/svg">
<path fill-rule="evenodd" clip-rule="evenodd" d="M128.844 31.1891C128.844 33.4899 129.443 35.3188 130.653 36.6796C131.855 38.0365 133.475 38.7169 135.513 38.7169C137.542 38.7169 139.17 38.0365 140.384 36.6678C141.602 35.307 142.209 33.4781 142.209 31.1891C142.209 28.904 141.602 27.0712 140.384 25.6986C139.17 24.3181 137.546 23.6338 135.513 23.6338C133.475 23.6338 131.855 24.322 130.653 25.6868C129.447 27.0555 128.844 28.8922 128.844 31.1891ZM126.617 40.6756V15.0322H128.844V25.0143C129.715 23.7439 130.692 22.8118 131.772 22.2139C132.852 21.6161 134.106 21.3211 135.54 21.3211C138.208 21.3211 140.368 22.2257 142.028 24.0428C143.683 25.8599 144.511 28.2393 144.511 31.1852C144.511 34.131 143.683 36.5184 142.028 38.3394C140.368 40.1564 138.208 41.0689 135.54 41.0689C134.074 41.0689 132.797 40.7621 131.705 40.1525C130.614 39.5389 129.66 38.595 128.84 37.3286V40.6717H126.617V40.6756ZM147.589 17.9427V15.0322H149.784V17.9427H147.589ZM147.589 40.6756V21.86H149.784V40.6717H147.589V40.6756ZM156.216 31.1891C156.216 33.4899 156.815 35.3188 158.025 36.6796C159.227 38.0365 160.847 38.7169 162.885 38.7169C164.915 38.7169 166.543 38.0365 167.756 36.6678C168.974 35.307 169.581 33.4781 169.581 31.1891C169.581 28.904 168.974 27.0712 167.756 25.6986C166.543 24.3181 164.919 23.6338 162.885 23.6338C160.847 23.6338 159.227 24.322 158.025 25.6868C156.819 27.0555 156.216 28.8922 156.216 31.1891ZM153.989 40.6756V15.0322H156.216V25.0143C157.087 23.7439 158.065 22.8118 159.145 22.2139C160.225 21.6161 161.478 21.3211 162.913 21.3211C165.581 21.3211 167.741 22.2257 169.4 24.0428C171.055 25.8599 171.883 28.2393 171.883 31.1852C171.883 34.131 171.055 36.5184 169.4 38.3394C167.741 40.1564 165.581 41.0689 162.913 41.0689C161.446 41.0689 160.169 40.7621 159.078 40.1525C157.986 39.5389 157.032 38.595 156.212 37.3286V40.6717H153.989V40.6756ZM174.961 40.6756V15.0322H177.156V40.6756H174.961ZM181.456 17.9427V15.0322H183.652V17.9427H181.456ZM181.456 40.6756V21.86H183.652V40.6717H181.456V40.6756ZM189.032 31.2599C189.032 33.6079 189.643 35.4722 190.872 36.8566C192.094 38.2489 193.738 38.9411 195.807 38.9411C197.864 38.9411 199.504 38.241 200.726 36.8527C201.955 35.4604 202.566 33.5961 202.566 31.2599C202.566 28.9237 201.955 27.0634 200.726 25.6789C199.504 24.2866 197.864 23.5944 195.807 23.5944C193.738 23.5944 192.094 24.2866 190.872 25.6789C189.643 27.0634 189.032 28.9198 189.032 31.2599ZM186.769 31.2599C186.769 28.2551 187.597 25.8284 189.264 23.9681C190.923 22.1156 193.103 21.1874 195.803 21.1874C198.495 21.1874 200.674 22.1156 202.341 23.9799C204.017 25.8363 204.852 28.2629 204.852 31.2599C204.852 34.2647 204.017 36.6993 202.341 38.5557C200.67 40.4199 198.491 41.3481 195.803 41.3481C193.103 41.3481 190.923 40.4199 189.264 38.5557C187.601 36.6954 186.769 34.2647 186.769 31.2599ZM210.997 35.661C210.997 37.0651 211.135 37.9225 211.418 38.2371C211.698 38.5557 212.226 38.7169 213.007 38.7169C213.255 38.7169 213.523 38.6973 213.811 38.6579C214.098 38.6147 214.426 38.5439 214.8 38.4377V40.5733C214.28 40.711 213.795 40.8172 213.342 40.8801C212.888 40.9509 212.459 40.9863 212.057 40.9863C210.878 40.9863 210.031 40.6127 209.526 39.8693C209.022 39.122 208.77 37.832 208.77 35.9913V23.9091H205.904V21.86H208.77V16.3459H210.997V21.86H214.831V23.9091H210.997V35.661ZM219.344 29.73H232.382C232.26 27.8618 231.606 26.3554 230.419 25.2266C229.233 24.0979 227.735 23.5276 225.914 23.5276C224.07 23.5276 222.549 24.0939 221.354 25.2266C220.156 26.3594 219.486 27.8618 219.344 29.73ZM234.266 34.6738C233.821 36.7229 232.847 38.3433 231.342 39.5429C229.844 40.7424 228.035 41.3481 225.914 41.3481C223.207 41.3481 221.023 40.4239 219.364 38.5714C217.709 36.7268 216.881 34.2883 216.881 31.256C216.881 28.2511 217.709 25.8245 219.376 23.9641C221.035 22.1117 223.219 21.1835 225.914 21.1835C228.626 21.1835 230.802 22.0959 232.445 23.9248C234.089 25.7458 234.908 28.1843 234.908 31.2206V31.7948H219.281C219.407 34.072 220.046 35.8301 221.201 37.0729C222.348 38.3158 223.924 38.9372 225.918 38.9372C227.365 38.9372 228.598 38.5635 229.619 37.8202C230.64 37.0729 231.361 36.0267 231.779 34.6738H234.266ZM250.847 33.8282H253.106C252.865 36.0464 251.978 37.8517 250.437 39.2558C248.888 40.652 247.02 41.3521 244.817 41.3521C242.117 41.3521 239.938 40.4239 238.278 38.5596C236.615 36.7032 235.783 34.2687 235.783 31.2638C235.783 28.259 236.611 25.8323 238.278 23.972C239.938 22.1195 242.121 21.1914 244.817 21.1914C246.949 21.1914 248.762 21.8324 250.268 23.1028C251.765 24.3732 252.66 26.0329 252.952 28.0781H250.646C250.24 26.6111 249.531 25.4862 248.514 24.7035C247.493 23.9209 246.24 23.5315 244.746 23.5315C242.752 23.5315 241.136 24.2434 239.902 25.6632C238.665 27.083 238.046 28.9552 238.046 31.2599C238.046 33.6079 238.657 35.4722 239.886 36.8645C241.108 38.2489 242.756 38.9411 244.821 38.9411C246.358 38.9411 247.674 38.4731 248.77 37.5449C249.862 36.6128 250.555 35.3778 250.847 33.8282ZM272.572 38.3L272.587 40.4317C272.241 40.5497 271.917 40.6402 271.61 40.6913C271.306 40.7503 271.015 40.7818 270.731 40.7818C269.982 40.7818 269.438 40.5576 269.095 40.1132C268.756 39.6687 268.544 38.8939 268.457 37.8005C267.531 38.9647 266.502 39.8143 265.359 40.3452C264.216 40.8762 262.841 41.1436 261.217 41.1436C259.171 41.1436 257.591 40.652 256.479 39.6687C255.368 38.6855 254.816 37.2892 254.816 35.4918C254.816 34.658 254.966 33.9068 255.257 33.2382C255.557 32.5617 256.002 31.9836 256.594 31.488C257.063 31.1026 257.693 30.7879 258.493 30.5362C259.297 30.2806 260.657 30.0053 262.592 29.7024C263.018 29.6434 263.597 29.5648 264.334 29.4586C267.081 29.0928 268.461 28.2 268.461 26.7881C268.461 25.7576 268.063 24.9789 267.271 24.44C266.478 23.9012 265.308 23.6338 263.771 23.6338C261.839 23.6338 260.373 23.9956 259.372 24.7232C258.371 25.4508 257.831 26.5442 257.744 28.0034H255.549C255.671 25.7969 256.4 24.1451 257.725 23.0438C259.049 21.9504 260.968 21.3998 263.495 21.3998C265.107 21.3998 266.403 21.5768 267.397 21.9386C268.386 22.2926 269.166 22.8747 269.738 23.6731C270.085 24.1569 270.329 24.7153 270.483 25.3407C270.633 25.9739 270.707 26.9375 270.707 28.2472V29.2895V36.5931C270.707 37.423 270.778 37.95 270.908 38.1624C271.042 38.3748 271.279 38.481 271.626 38.481C271.779 38.481 271.941 38.4692 272.099 38.4377C272.252 38.4023 272.414 38.3551 272.572 38.3ZM268.457 30.4772C268.051 30.7329 267.44 30.961 266.628 31.1812C265.816 31.3936 264.48 31.6532 262.636 31.9679C260.196 32.3926 258.655 32.8567 258.008 33.3484C257.366 33.84 257.039 34.5715 257.039 35.5626C257.039 36.5734 257.433 37.3915 258.225 37.9933C259.014 38.6029 260.074 38.9057 261.414 38.9057C263.503 38.9057 265.193 38.363 266.498 37.2774C267.799 36.188 268.453 34.78 268.453 33.0455V32.7505V30.4772H268.457ZM126.554 69.4024V50.5908H128.686V54.0597C129.506 52.7933 130.515 51.8297 131.705 51.1768C132.903 50.52 134.251 50.1935 135.757 50.1935C137.992 50.1935 139.631 50.7599 140.692 51.9044C141.744 53.041 142.272 54.8148 142.272 57.2297V69.4024H140.077V58.8265C140.077 56.4352 139.726 54.7676 139.02 53.8316C138.315 52.8955 137.101 52.4275 135.39 52.4275C133.459 52.4275 131.871 53.0135 130.625 54.1777C129.376 55.3419 128.753 56.8482 128.753 58.6889V69.3985H126.554V69.4024ZM163.472 67.0308L163.488 69.1625C163.141 69.2805 162.818 69.371 162.511 69.4221C162.207 69.4811 161.915 69.5126 161.632 69.5126C160.883 69.5126 160.339 69.2884 159.996 68.8439C159.657 68.3995 159.444 67.6247 159.358 66.5313C158.431 67.6955 157.403 68.545 156.26 69.076C155.117 69.607 153.741 69.8744 152.117 69.8744C150.072 69.8744 148.491 69.3828 147.38 68.3995C146.268 67.4163 145.717 66.02 145.717 64.2226C145.717 63.3888 145.866 62.6376 146.158 61.969C146.458 61.2925 146.903 60.7144 147.494 60.2188C147.963 59.8334 148.594 59.5187 149.394 59.267C150.198 59.0114 151.558 58.7361 153.493 58.4332C153.919 58.3742 154.498 58.2956 155.235 58.1894C157.982 57.8236 159.361 56.9308 159.361 55.5188C159.361 54.4884 158.963 53.7096 158.171 53.1708C157.379 52.632 156.208 52.3646 154.671 52.3646C152.74 52.3646 151.274 52.7264 150.273 53.454C149.272 54.1816 148.732 55.275 148.645 56.7341H146.45C146.572 54.5277 147.301 52.8758 148.625 51.7746C149.95 50.6812 151.869 50.1306 154.395 50.1306C156.007 50.1306 157.304 50.3076 158.297 50.6694C159.287 51.0234 160.067 51.6055 160.638 52.4039C160.985 52.8876 161.23 53.4461 161.383 54.0715C161.533 54.7047 161.608 55.6683 161.608 56.978V58.0202V65.3239C161.608 66.1538 161.679 66.6808 161.809 66.8932C161.943 67.1055 162.18 67.2117 162.526 67.2117C162.68 67.2117 162.842 67.1999 162.999 67.1685C163.153 67.1331 163.315 67.0859 163.472 67.0308ZM159.358 59.208C158.952 59.4637 158.341 59.6918 157.529 59.912C156.717 60.1244 155.381 60.384 153.536 60.6986C151.097 61.1234 149.556 61.5875 148.909 62.0791C148.267 62.5708 147.94 63.3023 147.94 64.2934C147.94 65.3042 148.334 66.1223 149.126 66.724C149.914 67.3337 150.974 67.6365 152.314 67.6365C154.403 67.6365 156.094 67.0938 157.399 66.0082C158.703 64.9188 159.354 63.5108 159.354 61.7763V61.4813V59.208H159.358ZM179.9 62.559H182.158C181.918 64.7772 181.031 66.5825 179.49 67.9865C177.941 69.3828 176.073 70.0829 173.869 70.0829C171.17 70.0829 168.99 69.1547 167.331 67.2904C165.668 65.434 164.836 62.9995 164.836 59.9946C164.836 56.9898 165.664 54.5631 167.331 52.7028C168.99 50.8503 171.174 49.9221 173.869 49.9221C176.002 49.9221 177.815 50.5593 179.32 51.8336C180.818 53.104 181.713 54.7637 182.004 56.8089H179.699C179.293 55.3419 178.583 54.217 177.566 53.4343C176.546 52.6517 175.292 52.2623 173.799 52.2623C171.804 52.2623 170.188 52.9742 168.955 54.394C167.717 55.8138 167.098 57.6859 167.098 59.9907C167.098 62.3387 167.709 64.203 168.939 65.5953C170.161 66.9797 171.808 67.6719 173.873 67.6719C175.41 67.6719 176.727 67.2039 177.823 66.2757C178.914 65.3435 179.604 64.1086 179.9 62.559ZM184.184 46.6735V43.763H186.379V46.6735H184.184ZM184.184 69.4024V50.5908H186.379V69.4024H184.184ZM191.755 59.9907C191.755 62.3387 192.366 64.203 193.596 65.5874C194.817 66.9797 196.461 67.6719 198.53 67.6719C200.588 67.6719 202.227 66.9718 203.449 65.5835C204.679 64.1912 205.29 62.3269 205.29 59.9907C205.29 57.6545 204.679 55.7942 203.449 54.4097C202.227 53.0174 200.588 52.3252 198.53 52.3252C196.461 52.3252 194.817 53.0174 193.596 54.4097C192.37 55.7942 191.755 57.6505 191.755 59.9907ZM189.497 59.9907C189.497 56.9859 190.324 54.5592 191.992 52.6989C193.651 50.8464 195.83 49.9182 198.53 49.9182C201.222 49.9182 203.402 50.8464 205.069 52.7107C206.744 54.567 207.579 56.9937 207.579 59.9907C207.579 62.9955 206.744 65.4301 205.069 67.2865C203.398 69.1507 201.218 70.0789 198.53 70.0789C195.83 70.0789 193.651 69.1507 191.992 67.2865C190.328 65.4261 189.497 62.9955 189.497 59.9907ZM210.512 69.4024V50.5908H212.644V54.0597C213.464 52.7933 214.473 51.8297 215.663 51.1768C216.857 50.52 218.209 50.1935 219.715 50.1935C221.949 50.1935 223.589 50.7599 224.649 51.9044C225.702 53.041 226.23 54.8148 226.23 57.2297V69.4024H224.034V58.8265C224.034 56.4352 223.684 54.7676 222.978 53.8316C222.273 52.8955 221.059 52.4275 219.348 52.4275C217.417 52.4275 215.829 53.0135 214.583 54.1777C213.334 55.3419 212.711 56.8482 212.711 58.6889V69.3985H210.512V69.4024ZM246.472 67.0308L246.488 69.1625C246.141 69.2805 245.818 69.371 245.511 69.4221C245.207 69.4811 244.915 69.5126 244.632 69.5126C243.883 69.5126 243.339 69.2884 242.992 68.8439C242.653 68.3995 242.44 67.6247 242.354 66.5313C241.427 67.6955 240.399 68.545 239.256 69.076C238.113 69.607 236.737 69.8744 235.113 69.8744C233.068 69.8744 231.487 69.3828 230.376 68.3995C229.265 67.4163 228.713 66.02 228.713 64.2226C228.713 63.3888 228.863 62.6376 229.154 61.969C229.454 61.2925 229.899 60.7144 230.49 60.2188C230.959 59.8334 231.59 59.5187 232.39 59.267C233.194 59.0114 234.554 58.7361 236.489 58.4332C236.915 58.3742 237.494 58.2956 238.231 58.1894C240.978 57.8236 242.358 56.9308 242.358 55.5188C242.358 54.4884 241.959 53.7096 241.167 53.1708C240.375 52.632 239.205 52.3646 237.667 52.3646C235.736 52.3646 234.27 52.7264 233.269 53.454C232.268 54.1816 231.728 55.275 231.641 56.7341H229.446C229.568 54.5277 230.297 52.8758 231.621 51.7746C232.946 50.6812 234.865 50.1306 237.392 50.1306C239.003 50.1306 240.3 50.3076 241.293 50.6694C242.283 51.0234 243.063 51.6055 243.635 52.4039C243.981 52.8876 244.226 53.4461 244.379 54.0715C244.529 54.7047 244.604 55.6683 244.604 56.978V58.0202V65.3239C244.604 66.1538 244.675 66.6808 244.805 66.8932C244.939 67.1055 245.176 67.2117 245.522 67.2117C245.676 67.2117 245.838 67.1999 245.995 67.1685C246.153 67.1331 246.315 67.0859 246.472 67.0308ZM242.358 59.208C241.952 59.4637 241.341 59.6918 240.529 59.912C239.717 60.1244 238.381 60.384 236.536 60.6986C234.097 61.1234 232.556 61.5875 231.909 62.0791C231.267 62.5708 230.94 63.3023 230.94 64.2934C230.94 65.3042 231.334 66.1223 232.126 66.724C232.914 67.3337 233.974 67.6365 235.314 67.6365C237.403 67.6365 239.094 67.0938 240.399 66.0082C241.699 64.9188 242.354 63.5108 242.354 61.7763V61.4813V59.208H242.358ZM249.342 69.4024V43.7591H251.537V69.4024H249.342ZM141.196 88.6468C141.196 86.3499 140.585 84.5171 139.367 83.1444C138.145 81.7757 136.518 81.0914 134.488 81.0914C132.462 81.0914 130.842 81.7797 129.616 83.1562C128.399 84.5289 127.788 86.3656 127.788 88.6468C127.788 90.9358 128.399 92.7646 129.616 94.1255C130.838 95.4942 132.462 96.1746 134.488 96.1746C136.529 96.1746 138.161 95.4942 139.375 94.1255C140.589 92.7686 141.196 90.9397 141.196 88.6468ZM143.391 72.4938V98.1372H141.196V94.7941C140.368 96.0605 139.399 97.0005 138.299 97.618C137.2 98.2276 135.919 98.5344 134.456 98.5344C131.8 98.5344 129.644 97.6219 127.997 95.8049C126.353 93.9839 125.529 91.5965 125.529 88.6507C125.529 85.7048 126.353 83.3254 127.997 81.5083C129.644 79.6912 131.8 78.7866 134.456 78.7866C135.887 78.7866 137.148 79.0816 138.232 79.6794C139.316 80.2773 140.305 81.2055 141.2 82.4798V72.4977H143.391V72.4938ZM148.862 87.1915H161.9C161.778 85.3233 161.123 83.817 159.937 82.6882C158.751 81.5594 157.253 80.9891 155.432 80.9891C153.587 80.9891 152.066 81.5555 150.872 82.6882C149.678 83.8209 149.008 85.3233 148.862 87.1915ZM163.788 92.1354C163.342 94.1845 162.369 95.8049 160.863 97.0044C159.365 98.204 157.556 98.8097 155.436 98.8097C152.728 98.8097 150.545 97.8854 148.885 96.033C147.23 94.1884 146.402 91.7499 146.402 88.7175C146.402 85.7127 147.23 83.286 148.897 81.4257C150.557 79.5733 152.74 78.6451 155.436 78.6451C158.148 78.6451 160.323 79.5575 161.967 81.3864C163.61 83.2074 164.43 85.6459 164.43 88.6822V89.2564H148.803C148.929 91.5336 149.567 93.2917 150.722 94.5345C151.869 95.7773 153.446 96.3988 155.44 96.3988C156.886 96.3988 158.12 96.0251 159.141 95.2818C160.162 94.5345 160.883 93.4883 161.301 92.1354H163.788ZM167.445 98.1332V72.4899H169.64V98.1332H167.445ZM184.822 88.7175C184.822 91.0184 185.421 92.8472 186.631 94.2081C187.833 95.565 189.453 96.2454 191.491 96.2454C193.521 96.2454 195.149 95.565 196.362 94.1963C197.58 92.8354 198.187 91.0066 198.187 88.7175C198.187 86.4443 197.58 84.6233 196.362 83.2506C195.149 81.8819 193.525 81.1976 191.491 81.1976C189.453 81.1976 187.833 81.878 186.631 83.2349C185.421 84.5957 184.822 86.4246 184.822 88.7175ZM182.596 104.882V79.3215H184.822V82.6174C185.674 81.3313 186.639 80.3913 187.719 79.7896C188.799 79.1917 190.064 78.8889 191.523 78.8889C194.207 78.8889 196.378 79.7935 198.026 81.5988C199.669 83.408 200.493 85.7835 200.493 88.7175C200.493 91.6516 199.665 94.0389 197.998 95.8599C196.339 97.6888 194.179 98.6013 191.523 98.6013C190.088 98.6013 188.831 98.2984 187.755 97.7006C186.675 97.0988 185.697 96.1667 184.826 94.9081V104.878H182.596V104.882ZM204.84 87.1915H217.878C217.756 85.3233 217.102 83.817 215.915 82.6882C214.729 81.5594 213.231 80.9891 211.41 80.9891C209.566 80.9891 208.045 81.5555 206.85 82.6882C205.656 83.8209 204.986 85.3233 204.84 87.1915ZM219.766 92.1354C219.321 94.1845 218.347 95.8049 216.842 97.0044C215.344 98.204 213.535 98.8097 211.414 98.8097C208.707 98.8097 206.523 97.8854 204.864 96.033C203.209 94.1884 202.381 91.7499 202.381 88.7175C202.381 85.7127 203.209 83.286 204.876 81.4257C206.535 79.5733 208.718 78.6451 211.414 78.6451C214.126 78.6451 216.302 79.5575 217.945 81.3864C219.589 83.2074 220.408 85.6459 220.408 88.6822V89.2564H204.781C204.907 91.5336 205.546 93.2917 206.701 94.5345C207.847 95.7773 209.424 96.3988 211.418 96.3988C212.865 96.3988 214.098 96.0251 215.119 95.2818C216.14 94.5345 216.861 93.4883 217.279 92.1354H219.766ZM225.237 98.1332H223.01V79.3215H225.237V82.4444C225.725 81.2566 226.415 80.3205 227.314 79.6519C228.212 78.9833 229.213 78.6451 230.313 78.6451C230.676 78.6451 231.042 78.6883 231.413 78.7748C231.779 78.8653 232.157 78.9872 232.54 79.1642V81.5594C232.169 81.4296 231.819 81.3353 231.499 81.2802C231.176 81.2212 230.865 81.1897 230.565 81.1897C229.245 81.1897 228.145 81.587 227.262 82.3775C226.38 83.1641 225.706 84.3598 225.237 85.9566V98.1332ZM249.846 79.3215V98.1332H247.714V94.6486C246.878 95.9189 245.869 96.8865 244.671 97.5433C243.481 98.2001 242.129 98.5305 240.623 98.5305C238.4 98.5305 236.765 97.9562 235.705 96.8157C234.652 95.6751 234.124 93.8974 234.124 91.4943V79.3215H236.319V89.8975C236.319 92.2769 236.67 93.9406 237.376 94.8806C238.081 95.8206 239.295 96.2965 241.006 96.2965C242.937 96.2965 244.525 95.7105 245.771 94.5384C247.02 93.3625 247.643 91.864 247.643 90.0351V79.3255H249.846V79.3215ZM240.497 76.7218L243.236 71.4673H246.149L242.381 76.7218H240.497Z" fill="#BDBFC1"/>
<path fill-rule="evenodd" clip-rule="evenodd" d="M15.1622 0H102.838C111.179 0 118 6.82381 118 15.1618V93.8382C118 102.176 111.175 109 102.838 109H15.1622C6.82478 109 0 102.176 0 93.8382V15.1618C0 6.82381 6.82478 0 15.1622 0Z" fill="#0C5391"/>
<path fill-rule="evenodd" clip-rule="evenodd" d="M116 99.2663C115.818 99.6522 115.621 100.026 115.408 100.397C109.036 97.8799 102.68 95.7728 96.3394 94.1422C71.8702 87.8603 39.4815 88.6558 15.6006 96.7417C10.717 98.3959 6.60327 100.452 3.43704 103C2.91197 102.421 2.43427 101.803 2 101.149C3.58706 97.746 5.48206 94.5833 7.6771 91.6137C18.3365 77.1868 34.5624 66.7851 52.7623 66.0486C62.8176 65.6429 73.6941 67.7816 85.4826 72.2597C78.5817 69.9438 71.7755 68.5732 65.0798 68.2306C46.3904 67.2735 26.1297 75.6429 12.6949 88.5653C8.92069 92.1966 5.70709 96.2375 3.08173 100.716C6.43351 96.529 10.4249 92.9764 14.9255 89.9319C33.078 77.6476 54.7481 73.4767 76.2405 75.8319C88.9686 77.2262 101.436 80.8103 113.6 86.9701C102.798 82.6377 92.1901 79.9359 81.7676 78.7898C62.2057 76.6433 39.0393 80.0304 21.2382 88.5692C14.5386 91.783 8.75488 95.8791 4.18715 101.129C7.28231 98.7858 10.6262 96.8677 14.1635 95.2844C33.8715 86.4581 60.5555 84.8236 81.9611 88.0966C93.8088 89.8965 105.214 93.4254 116 99.2663Z" fill="#FEFEFE"/>
<path fill-rule="evenodd" clip-rule="evenodd" d="M26.2237 53.8746H22.0818V21H26.5442V32.7276C28.4312 30.5902 30.8404 29.5216 33.76 29.5216C35.3859 29.5216 36.9208 29.8195 38.3687 30.4115C39.8166 30.9994 41.0035 31.8337 41.945 32.8984C42.8786 33.9711 43.6144 35.2543 44.1406 36.7719C44.6746 38.2815 44.9357 39.8944 44.9357 41.6107C44.9357 45.6986 43.8162 48.853 41.581 51.0778C39.3538 53.3065 36.6677 54.4149 33.5424 54.4149C30.433 54.4149 27.996 53.2429 26.2237 50.895V53.8746ZM26.1723 41.7894C26.1723 44.6459 26.6035 46.7037 27.458 47.975C28.8624 50.0568 30.7692 51.0976 33.1666 51.0976C35.1248 51.0976 36.8101 50.3309 38.2303 48.7934C39.6544 47.2639 40.3665 44.9796 40.3665 41.9444C40.3665 38.8377 39.6821 36.5414 38.3173 35.0636C36.9525 33.5857 35.3028 32.8428 33.3723 32.8428C31.4141 32.8428 29.7288 33.6095 28.3086 35.139C26.8844 36.6686 26.1723 38.8893 26.1723 41.7894ZM46.7872 53.8746V30.0619H50.8025V33.4467C52.741 30.8286 55.5379 29.5216 59.1893 29.5216C60.7836 29.5216 62.2394 29.7838 63.5686 30.2963C64.9058 30.8167 65.8987 31.4921 66.5594 32.3343C67.2279 33.1686 67.6868 34.1657 67.9559 35.3138C68.118 36.0647 68.2011 37.3717 68.2011 39.2389V53.8825H63.7308V39.3859C63.7308 37.7491 63.5607 36.5136 63.2126 35.6952C62.8644 34.8848 62.2473 34.2333 61.3651 33.7526C60.475 33.2639 59.4425 33.0176 58.2478 33.0176C56.341 33.0176 54.7071 33.5698 53.3186 34.6544C51.9379 35.7509 51.2535 37.8167 51.2535 40.8717V53.8785H46.7872V53.8746ZM71.4688 63V30.0619H75.5356V33.1527C76.4929 31.945 77.5769 31.0312 78.7874 30.4274C79.9901 29.8235 81.4538 29.5176 83.1747 29.5176C85.4296 29.5176 87.4116 30.046 89.1285 31.0868C90.8573 32.1356 92.1509 33.6135 93.0252 35.5204C93.9074 37.4274 94.3465 39.517 94.3465 41.7894C94.3465 44.2247 93.8639 46.4217 92.8907 48.3723C91.9254 50.3229 90.521 51.8167 88.6736 52.8575C86.8261 53.8905 84.8876 54.4109 82.8542 54.4109C81.3628 54.4109 80.0336 54.1288 78.8468 53.5607C77.66 52.9926 76.6947 52.2736 75.9312 51.4115V63H71.4688ZM75.5119 42.1033C75.5119 45.1663 76.1962 47.4308 77.569 48.9007C78.9417 50.3627 80.6112 51.0976 82.5575 51.0976C84.5395 51.0976 86.2406 50.3388 87.6569 48.8173C89.0731 47.3036 89.7812 44.9518 89.7812 41.7656C89.7812 38.7264 89.085 36.462 87.7043 34.9444C86.3237 33.4347 84.6701 32.6799 82.7593 32.6799C80.8525 32.6799 79.1672 33.4824 77.7035 35.0914C76.2398 36.7003 75.5119 39.0403 75.5119 42.1033Z" fill="#FEFEFE"/>
</svg>
