<svg width="33" height="32" viewBox="0 0 33 32" fill="none" xmlns="http://www.w3.org/2000/svg">
<path d="M23.1604 14.7692C23.1604 16.1081 22.7633 17.4168 22.0195 18.53C21.2757 19.6432 20.2185 20.5108 18.9816 21.0232C17.7447 21.5355 16.3836 21.6696 15.0705 21.4084C13.7574 21.1472 12.5512 20.5025 11.6046 19.5558C10.6579 18.6091 10.0132 17.4029 9.75196 16.0898C9.49077 14.7767 9.62482 13.4157 10.1372 12.1788C10.6495 10.9418 11.5171 9.88463 12.6303 9.14082C13.7435 8.39701 15.0523 8 16.3911 8C18.1858 8.00203 19.9064 8.71587 21.1754 9.98491C22.4445 11.2539 23.1583 12.9745 23.1604 14.7692ZM32.3911 16C32.3911 19.1645 31.4527 22.2579 29.6946 24.8891C27.9365 27.5203 25.4377 29.5711 22.5141 30.7821C19.5904 31.9931 16.3734 32.3099 13.2697 31.6926C10.166 31.0752 7.31505 29.5513 5.07741 27.3137C2.83977 25.0761 1.31592 22.2251 0.698556 19.1214C0.0811924 16.0177 0.398046 12.8007 1.60905 9.87706C2.82005 6.95344 4.87081 4.45459 7.502 2.69649C10.1332 0.938383 13.2266 0 16.3911 0C20.6331 0.00480485 24.7 1.69206 27.6995 4.6916C30.6991 7.69114 32.3863 11.758 32.3911 16ZM29.9296 16C29.9313 13.8066 29.4001 11.6457 28.3817 9.7031C27.3633 7.76051 25.8881 6.09444 24.0832 4.84825C22.2782 3.60207 20.1975 2.81307 18.0201 2.54916C15.8427 2.28525 13.6337 2.55433 11.5833 3.33324C9.53292 4.11215 7.70247 5.37757 6.24946 7.02062C4.79645 8.66367 3.7644 10.6351 3.2421 12.7654C2.71981 14.8957 2.72291 17.121 3.25114 19.2498C3.77938 21.3786 4.81692 23.3472 6.27451 24.9861C7.26249 23.5548 8.54367 22.35 10.033 21.4517C11.7456 23.0874 14.0228 24.0001 16.391 24.0001C18.7593 24.0001 21.0365 23.0874 22.7491 21.4517C24.2385 22.3499 25.5197 23.5548 26.5077 24.9861C28.714 22.5131 29.9322 19.3141 29.9296 16Z" fill="#0F0A3C"/>
</svg>
