<svg width="35" height="32" viewBox="0 0 35 32" fill="none" xmlns="http://www.w3.org/2000/svg">
<path d="M18.4001 0.350447L33.7987 15.7378C34.7333 16.6724 34.7333 18.1865 33.8024 19.1211C33.3538 19.5735 32.7445 19.8239 32.1089 19.8239H30.4864V30.8037C30.4864 31.4654 29.9519 32 29.2901 32H19.3497H5.82026C5.15856 32 4.62396 31.4654 4.62396 30.8037V19.8239H3.00148C1.68182 19.8239 0.608887 18.751 0.608887 17.4313C0.608887 16.7958 0.8631 16.1864 1.31171 15.7378L16.7103 0.350447C16.8212 0.239356 16.9529 0.151221 17.0979 0.0910872C17.2428 0.0309529 17.3983 0 17.5552 0C17.7122 0 17.8676 0.0309529 18.0125 0.0910872C18.1575 0.151221 18.2892 0.239356 18.4001 0.350447Z" fill="#0F0A3C"/>
</svg>
