<svg xmlns="http://www.w3.org/2000/svg" width="74" height="65" fill="none" viewBox="0 0 74 65"><path fill="#fff" d="M68.6105 27.4499H14.3625L30.9662 7.50715C31.7426 6.57305 32.1161 5.3688 32.0046 4.1593C31.8931 2.94981 31.3057 1.83415 30.3716 1.05776C29.4375 0.281366 28.2332 -0.0921587 27.0237 0.019355C25.8142 0.130869 24.6986 0.718287 23.9222 1.65238L1.05203 29.0966C0.89816 29.3149 0.760567 29.5442 0.640364 29.7827C0.640364 30.0114 0.640366 30.1486 0.320183 30.3773C0.112858 30.9018 0.00430472 31.46 0 32.024C0.00430472 32.5879 0.112858 33.1462 0.320183 33.6706C0.320183 33.8993 0.320182 34.0366 0.640364 34.2653C0.760567 34.5037 0.89816 34.7331 1.05203 34.9514L23.9222 62.3956C24.3523 62.9119 24.8908 63.3271 25.4995 63.6117C26.1083 63.8963 26.7722 64.0433 27.4442 64.0422C28.5129 64.0443 29.5487 63.6721 30.3716 62.9902C30.8347 62.6062 31.2176 62.1346 31.4982 61.6024C31.7789 61.0703 31.9517 60.488 32.007 59.8889C32.0622 59.2898 31.9987 58.6857 31.8201 58.1112C31.6415 57.5366 31.3514 57.003 30.9662 56.5408L14.3625 36.598H68.6105C69.8236 36.598 70.987 36.1161 71.8448 35.2583C72.7026 34.4005 73.1845 33.2371 73.1845 32.024C73.1845 30.8109 72.7026 29.6474 71.8448 28.7896C70.987 27.9318 69.8236 27.4499 68.6105 27.4499Z"/></svg>