<svg width="26" height="32" viewBox="0 0 26 32" fill="none" xmlns="http://www.w3.org/2000/svg">
<path d="M2.27905 32C1.97365 31.9991 1.67364 31.9195 1.40794 31.7689C1.13333 31.6145 0.904674 31.39 0.745364 31.1182C0.586055 30.8465 0.501818 30.5372 0.501275 30.2222V4.14222C0.477242 3.07612 0.874301 2.04349 1.6064 1.26813C2.3385 0.492771 3.34666 0.0371458 4.41238 0H21.479C22.5448 0.0371458 23.5529 0.492771 24.285 1.26813C25.0171 2.04349 25.4142 3.07612 25.3901 4.14222V30.2222C25.3883 30.5325 25.3052 30.8368 25.1493 31.105C24.9934 31.3733 24.7699 31.596 24.5013 31.7511C24.231 31.9071 23.9244 31.9893 23.6124 31.9893C23.3003 31.9893 22.9937 31.9071 22.7235 31.7511L12.6435 26.0444L3.16794 31.7333C2.90048 31.8994 2.59373 31.9914 2.27905 32Z" fill="#0F0A3C"/>
</svg>
